<?xml version="1.0" encoding="UTF-8"?>
<svg width="28px" height="28px" viewBox="0 0 28 28" version="1.1" xmlns="http://www.w3.org/2000/svg" xmlns:xlink="http://www.w3.org/1999/xlink">
    <!-- Generator: Sketch 63.1 (92452) - https://sketch.com -->
    <title>#Icon / Left Bar / lb_lisa_on</title>
    <desc>Created with Sketch.</desc>
    <g id="#Icon-/-Left-Bar-/-lb_lisa_on" stroke="none" stroke-width="1" fill="none" fill-rule="evenodd">
        <path d="M21,3 C23.7614237,3 26,5.23857625 26,8 L26,20 C26,22.7614237 23.7614237,25 21,25 L7,25 C4.23857625,25 2,22.7614237 2,20 L2,8 C2,5.23857625 4.23857625,3 7,3 L21,3 Z M21,4.5 L7,4.5 C5.1314366,4.5 3.60487355,5.9642776 3.50517886,7.8079648 L3.5,8 L3.5,20 C3.5,21.8685634 4.9642776,23.3951264 6.8079648,23.4948211 L7,23.5 L21,23.5 C22.8685634,23.5 24.3951264,22.0357224 24.4948211,20.1920352 L24.5,20 L24.5,8 C24.5,6.1314366 23.0357224,4.60487355 21.1920352,4.50517886 L21,4.5 Z M14.7941441,10.5 C15.2426703,10.5 15.6425077,10.587344 15.9936565,10.7620321 C16.3448053,10.9367201 16.6207079,11.1854947 16.8213643,11.5083556 C16.988578,11.7774064 17.0861194,12.0708278 17.1139883,12.3886197 L17.122349,12.5822193 L16.0069352,12.5822193 C16.0069352,12.2266043 15.9014431,11.9481952 15.6904587,11.746992 C15.4794744,11.5457888 15.177752,11.4451872 14.7852916,11.4451872 C14.4193887,11.4451872 14.1353713,11.527852 13.9332394,11.6931818 C13.7311076,11.8585116 13.6300417,12.0893494 13.6300417,12.3856952 C13.6300417,12.6352496 13.7392224,12.8434715 13.9575838,13.010361 C14.1447507,13.1534091 14.4359796,13.2930195 14.8312704,13.4291921 L15.0375876,13.496992 C15.5392287,13.6545232 15.942017,13.8338904 16.2459525,14.0350936 C16.549888,14.2362968 16.7726756,14.4671346 16.9143155,14.727607 C17.0559553,14.9880793 17.1267752,15.2930036 17.1267752,15.6423797 C17.1267752,16.2101159 16.9209548,16.6616533 16.5093141,16.996992 C16.0976733,17.3323307 15.5392287,17.5 14.8339803,17.5 C14.3677492,17.5 13.9391411,17.4087567 13.5481561,17.2262701 C13.1571711,17.0437834 12.8532357,16.7918895 12.6363496,16.4705882 C12.4504474,16.1951872 12.3442175,15.8808251 12.31766,15.5275019 L12.3110206,15.3475936 L13.4308606,15.3475936 C13.4308606,15.7344029 13.5518447,16.0338681 13.7938127,16.2459893 C14.0357808,16.4581105 14.3825033,16.5641711 14.8339803,16.5641711 C15.2234899,16.5641711 15.5163597,16.4807264 15.7125899,16.3138369 C15.9088201,16.1469474 16.0069352,15.9262478 16.0069352,15.651738 C16.0069352,15.3522727 15.9073447,15.1214349 15.7081637,14.9592246 C15.5338803,14.8172906 15.2370337,14.6741623 14.8176239,14.52984 L14.630373,14.4679144 C14.111027,14.3025847 13.6979107,14.1185383 13.3910244,13.9157754 C12.8038093,13.5258467 12.5102017,13.0173797 12.5102017,12.3903743 C12.5102017,11.8413547 12.7219237,11.3890374 13.1453678,11.0334225 C13.5688119,10.6778075 14.118404,10.5 14.7941441,10.5 Z M7.11983999,10.5935829 L7.11983999,16.4612299 L10.045588,16.4612299 L10.045588,17.4064171 L6,17.4064171 L6,10.5935829 L7.11983999,10.5935829 Z M11.6740437,10.5935829 L11.6740437,17.4064171 L10.55863,17.4064171 L10.55863,10.5935829 L11.6740437,10.5935829 Z M20.561139,10.5935829 L23,17.4064171 L21.8314713,17.4064171 L21.3047482,15.8201872 L18.808346,15.8201872 L18.286049,17.4064171 L17.1219466,17.4064171 L19.5563814,10.5935829 L20.561139,10.5935829 Z M20.056,12.04 L19.1226094,14.8656417 L20.9904848,14.8656417 L20.056,12.04 Z" id="形状" fill="#FFFFFF" fill-rule="nonzero"></path>
    </g>
</svg>