<?xml version="1.0" encoding="UTF-8"?>
<svg width="28px" height="28px" viewBox="0 0 28 28" version="1.1" xmlns="http://www.w3.org/2000/svg" xmlns:xlink="http://www.w3.org/1999/xlink">
    <!-- Generator: Sketch 63.1 (92452) - https://sketch.com -->
    <title>#Icon / Left Bar / lb_develop_plugin_on</title>
    <desc>Created with Sketch.</desc>
    <g id="#Icon-/-Left-Bar-/-lb_develop_plugin_on" stroke="none" stroke-width="1" fill="none" fill-rule="evenodd">
        <path d="M15.6756757,1.25 C13.8191188,1.25 12.25,2.47042571 12.25,4.08108108 C12.25,4.99535424 12.7149159,5.734505 13.5806083,6.32521203 L13.5915008,6.335591 C13.6139543,6.36523934 13.6134887,6.43545269 13.543,6.601 L7.35135135,6.60135135 L7.24958079,6.60819797 C6.88350523,6.65786039 6.60135135,6.97165559 6.60135135,7.35135135 L6.601,13.543 C6.41194094,13.623267 6.34695697,13.6124206 6.32480714,13.5799568 C5.73460146,12.714924 4.99508994,12.25 4.08108108,12.25 C2.47042571,12.25 1.25,13.8191188 1.25,15.6756757 C1.25,17.5322326 2.47042571,19.1013514 4.08108108,19.1013514 C4.99535424,19.1013514 5.734505,18.6364355 6.32521203,17.770743 L6.335591,17.7598505 C6.36523934,17.7373971 6.43545269,17.7378626 6.601,17.808 L6.60135135,24 C6.60135135,24.4142136 6.93713779,24.75 7.35135135,24.75 L14.0033784,24.75 C14.2784009,24.75 14.5313643,24.5994733 14.6625524,24.3577564 L14.7260996,24.2406692 C15.2680315,23.2033665 15.2297534,22.283226 14.4260651,21.7348276 C13.9407799,21.4036923 13.75,21.1003791 13.75,20.7297297 C13.75,20.0416864 14.5767628,19.3986486 15.6756757,19.3986486 C16.7745885,19.3986486 17.6013514,20.0416864 17.6013514,20.7297297 C17.6013514,21.0632027 17.4467755,21.3424195 17.0626386,21.6359288 L16.9259879,21.7343886 C16.0818341,22.3103487 16.0814118,23.2781323 16.6942913,24.3676959 C16.82713,24.6038537 17.077018,24.75 17.347973,24.75 L24,24.75 C24.4142136,24.75 24.75,24.4142136 24.75,24 L24.75,17.347973 C24.75,17.0729505 24.5994733,16.819987 24.3577564,16.688799 L24.2406692,16.6252518 C23.2033665,16.0833199 22.283226,16.121598 21.7348276,16.9252863 C21.4036923,17.4105714 21.1003791,17.6013514 20.7297297,17.6013514 C20.0416864,17.6013514 19.3986486,16.7745885 19.3986486,15.6756757 C19.3986486,14.5767628 20.0416864,13.75 20.7297297,13.75 C21.0632027,13.75 21.3424195,13.9045759 21.6359288,14.2887128 L21.7343886,14.4253635 C22.3103487,15.2695173 23.2781323,15.2699396 24.3676959,14.65706 C24.6038537,14.5242213 24.75,14.2743334 24.75,14.0033784 L24.75,7.35135135 L24.7431534,7.24958079 C24.693491,6.88350523 24.3796958,6.60135135 24,6.60135135 L17.808,6.601 C17.7280843,6.41194094 17.7389307,6.34695697 17.7713945,6.32480714 C18.6364273,5.73460146 19.1013514,4.99508994 19.1013514,4.08108108 C19.1013514,2.47042571 17.5322326,1.25 15.6756757,1.25 Z M15.6756757,2.75 C16.7745885,2.75 17.6013514,3.39303776 17.6013514,4.08108108 C17.6013514,4.45160659 17.4105169,4.75514922 16.9259879,5.08573994 C16.0818341,5.66170002 16.0814118,6.62948369 16.6942913,7.71904728 L16.7494051,7.80327751 C16.8899312,7.98945806 17.1108874,8.10135135 17.347973,8.10135135 L23.25,8.101 L23.25,13.543 C23.0605896,13.623267 22.9956056,13.6124206 22.9734558,13.5799568 C22.3832501,12.714924 21.6437386,12.25 20.7297297,12.25 C19.1190744,12.25 17.8986486,13.8191188 17.8986486,15.6756757 C17.8986486,17.5322326 19.1190744,19.1013514 20.7297297,19.1013514 C21.6440029,19.1013514 22.3831536,18.6364355 22.9738607,17.770743 L22.9838987,17.7599591 C23.0081984,17.7409258 23.0602308,17.7388192 23.1830169,17.7846033 L23.25,17.811 L23.25,23.25 L17.808,23.25 C17.7280843,23.0605896 17.7389307,22.9956056 17.7713945,22.9734558 C18.6364273,22.3832501 19.1013514,21.6437386 19.1013514,20.7297297 C19.1013514,19.1190744 17.5322326,17.8986486 15.6756757,17.8986486 C13.8191188,17.8986486 12.25,19.1190744 12.25,20.7297297 C12.25,21.6440029 12.7149159,22.3831536 13.5806083,22.9738607 L13.5913922,22.9838987 C13.6135978,23.0122484 13.6127642,23.0783453 13.5397217,23.2505052 L8.101,23.25 L8.10135135,17.347973 C8.10135135,17.077018 7.95520502,16.82713 7.71904728,16.6942913 C6.68398917,16.1120711 5.75902989,16.0829822 5.17545216,16.8050109 L5.086179,16.9252863 C4.75504365,17.4105714 4.45173046,17.6013514 4.08108108,17.6013514 C3.39303776,17.6013514 2.75,16.7745885 2.75,15.6756757 C2.75,14.5767628 3.39303776,13.75 4.08108108,13.75 C4.45160659,13.75 4.75514922,13.9408344 5.08573994,14.4253635 C5.66170002,15.2695173 6.62948369,15.2699396 7.71904728,14.65706 L7.80327751,14.6019463 C7.98945806,14.4614201 8.10135135,14.240464 8.10135135,14.0033784 L8.101,8.101 L14.0033784,8.10135135 C14.2743334,8.10135135 14.5242213,7.95520502 14.65706,7.71904728 C15.2392802,6.68398917 15.2683691,5.75902989 14.5463405,5.17545216 L14.4260651,5.086179 C13.9407799,4.75504365 13.75,4.45173046 13.75,4.08108108 C13.75,3.39303776 14.5767628,2.75 15.6756757,2.75 Z" id="路径" fill="#FFFFFF" fill-rule="nonzero"></path>
    </g>
</svg>