<?xml version="1.0" encoding="UTF-8"?>
<svg width="16px" height="16px" viewBox="0 0 16 16" version="1.1" xmlns="http://www.w3.org/2000/svg" xmlns:xlink="http://www.w3.org/1999/xlink">
    <!-- Generator: Sketch 63.1 (92452) - https://sketch.com -->
    <title>r_refresh_white</title>
    <desc>Created with Sketch.</desc>
    <g id="r_refresh_white" stroke="none" stroke-width="1" fill="none" fill-rule="evenodd">
        <g id="#Icon-/-Font-/-r_refresh" fill="#FFFFFF">
            <path d="M11.4406557,1.09169183 C11.5007746,1.11845849 11.5516254,1.16242153 11.5867999,1.2180407 L13.5561945,4.33211954 C13.654593,4.48771089 13.6082291,4.69361037 13.4526377,4.79200889 C13.4154429,4.81553148 13.3739584,4.83145591 13.3305776,4.83886338 L9.69858382,5.45904345 C9.51711545,5.49003003 9.34488668,5.36804043 9.3139001,5.18657206 C9.30282334,5.12170264 9.31119585,5.05500591 9.3379625,4.99488701 L9.96604128,3.58417181 C7.73363034,2.58699364 5.06358183,3.4193588 3.81421055,5.58333333 C2.4795224,7.89508101 3.27158565,10.8511013 5.58333333,12.1857895 C7.89508101,13.5204776 10.8511013,12.7284143 12.1857895,10.4166667 C12.3238606,10.1775204 12.6296558,10.0955828 12.8688022,10.233654 C13.1079485,10.3717252 13.189886,10.6775204 13.0518149,10.9166667 C11.4409843,13.706707 7.87337364,14.6626454 5.08333333,13.0518149 C2.29329303,11.4409843 1.33735462,7.87337364 2.94818514,5.08333333 C4.45610149,2.4715456 7.67875216,1.46698873 10.3731004,2.6706826 L11.0005617,1.26062811 C11.0754398,1.09244903 11.2724766,1.01681369 11.4406557,1.09169183 Z" id="路径"></path>
        </g>
    </g>
</svg>