<?xml version="1.0" encoding="UTF-8"?>
<svg width="32px" height="32px" viewBox="0 0 32 32" version="1.1" xmlns="http://www.w3.org/2000/svg" xmlns:xlink="http://www.w3.org/1999/xlink">
    <!-- Generator: Sketch 63.1 (92452) - https://sketch.com -->
    <title>_images / Icon / h_interact_dark</title>
    <desc>Created with Sketch.</desc>
    <g id="_images-/-Icon-/-h_interact_dark" stroke="none" stroke-width="1" fill="none" fill-rule="evenodd">
        <path d="M8.5,16.25 C4.49593556,16.25 1.25,19.4959356 1.25,23.5 C1.25,27.5040644 4.49593556,30.75 8.5,30.75 C12.5040644,30.75 15.75,27.5040644 15.75,23.5 C15.75,19.4959356 12.5040644,16.25 8.5,16.25 Z M8.5,17.75 C11.6756373,17.75 14.25,20.3243627 14.25,23.5 C14.25,26.6756373 11.6756373,29.25 8.5,29.25 C5.32436269,29.25 2.75,26.6756373 2.75,23.5 C2.75,20.3243627 5.32436269,17.75 8.5,17.75 Z" id="椭圆形" fill="#CCCCCC" fill-rule="nonzero"></path>
        <path d="M26.4118146,1.2517148 L21.8458278,1.25 C20.5133793,1.25 19.860146,1.37614517 19.1810323,1.73933916 C18.5614421,2.07069965 18.0706996,2.56144206 17.7393392,3.1810323 C17.4003581,3.81487176 17.2678729,4.42616653 17.2517148,5.58818539 L17.25,10.1541722 C17.25,11.4866207 17.3761452,12.139854 17.7393392,12.8189677 C18.0706996,13.4385579 18.5614421,13.9293004 19.1810323,14.2606608 C19.860146,14.6238548 20.5133793,14.75 21.8458278,14.75 L26.1541722,14.75 C27.4866207,14.75 28.139854,14.6238548 28.8189677,14.2606608 C29.4385579,13.9293004 29.9293004,13.4385579 30.2606608,12.8189677 C30.6238548,12.139854 30.75,11.4866207 30.75,10.1541722 L30.75,5.8458278 C30.75,4.51337933 30.6238548,3.860146 30.2606608,3.1810323 C29.9293004,2.56144206 29.4385579,2.07069965 28.8189677,1.73933916 C28.1851282,1.40035811 27.5738335,1.26787291 26.4118146,1.2517148 Z M21.6190834,2.75126454 L26.1541722,2.75 C27.2601736,2.75 27.6794706,2.83096999 28.1115694,3.06205895 C28.4697569,3.25361974 28.7463803,3.53024305 28.937941,3.88843059 C29.16903,4.32052939 29.25,4.73982639 29.25,5.8458278 L29.25,10.1541722 L29.2448411,10.5881691 C29.2238021,11.380234 29.1360173,11.741199 28.937941,12.1115694 C28.7463803,12.4697569 28.4697569,12.7463803 28.1115694,12.937941 C27.6794706,13.16903 27.2601736,13.25 26.1541722,13.25 L21.8458278,13.25 L21.4118309,13.2448411 C20.619766,13.2238021 20.258801,13.1360173 19.8884306,12.937941 C19.5302431,12.7463803 19.2536197,12.4697569 19.062059,12.1115694 C18.8474763,11.7103348 18.7623331,11.3201385 18.7512645,10.3809166 L18.75,5.8458278 C18.75,4.73982639 18.83097,4.32052939 19.062059,3.88843059 C19.2536197,3.53024305 19.5302431,3.25361974 19.8884306,3.06205895 C20.2896652,2.84747634 20.6798615,2.76233305 21.6190834,2.75126454 Z" id="矩形" fill="#CCCCCC" fill-rule="nonzero"></path>
        <path d="M26.5,16 L29,20 L27.25,20 L27.25,23.5 C27.25,25.5042592 25.6776389,27.1412737 23.6991586,27.244802 L23.5,27.25 L17.5,27.25 L17.5,25.75 L23.5,25.75 C24.690864,25.75 25.6656449,24.8248384 25.7448092,23.6540488 L25.75,23.5 L25.75,20 L24,20 L26.5,16 Z" id="路径" fill="#808080" fill-rule="nonzero"></path>
        <path d="M14.5,4.75 L14.5,6.25 L8.5,6.25 C7.30913601,6.25 6.33435508,7.17516159 6.25519081,8.34595119 L6.25,8.5 L6.25,11 L8,11 L5.5,15 L3,11 L4.75,11 L4.75,8.5 C4.75,6.49574083 6.32236105,4.85872626 8.30084143,4.75519801 L8.5,4.75 L14.5,4.75 Z" id="路径" fill="#808080" fill-rule="nonzero"></path>
    </g>
</svg>