<?xml version="1.0" encoding="UTF-8"?>
<svg width="32px" height="32px" viewBox="0 0 32 32" version="1.1" xmlns="http://www.w3.org/2000/svg" xmlns:xlink="http://www.w3.org/1999/xlink">
    <!-- Generator: Sketch 63.1 (92452) - https://sketch.com -->
    <title>_images / Icon / h_noise_light</title>
    <desc>Created with Sketch.</desc>
    <g id="_images-/-Icon-/-h_noise_light" stroke="none" stroke-width="1" fill="none" fill-rule="evenodd">
        <g id="fill" transform="translate(0.000000, 1.249995)" fill-rule="nonzero">
            <path d="M10.2862185,0.51975336 C10.4932997,-0.122198177 11.3568994,-0.173512163 11.6578289,0.38820364 L11.7048451,0.493698147 L21.047,26.1860054 L25.3076923,15.9615439 C25.409588,15.7169944 25.6314017,15.5470411 25.888099,15.5083739 L26,15.5 L32,15.5 L32,17 L26.5,17 L21.6923077,28.538467 C21.4449179,29.1322024 20.6324702,29.1487652 20.3430303,28.6131961 L20.2951549,28.5063127 L11.042,3.06000544 L6.71378146,16.4802575 C6.62495397,16.7556228 6.38725565,16.9521148 6.1069179,16.9923802 L6,17 L0,17 L0,15.5 L5.453,15.5 L10.2862185,0.51975336 Z" id="路径-5" fill="#808080"></path>
            <path d="M10.423834,9.76986714 C10.6869274,9.45415517 11.1483747,9.41327593 11.4616105,9.65871785 L11.5431034,9.73276407 L21.04,19.7040054 L25.4982765,15.6925348 C25.6084513,15.5933775 25.7448694,15.5296531 25.8898937,15.5081296 L26,15.500002 L32,15.500002 L32,17.000002 L26.287,17.000002 L21.5017235,21.3074761 C21.2273949,21.5543718 20.819745,21.5620813 20.5375369,21.3405676 L20.4568966,21.2672468 L11.037,11.3770054 L6.57616596,16.7301437 C6.45741982,16.8726391 6.2910415,16.9650462 6.11006987,16.9918903 L6,17.000002 L0,17.000002 L0,15.500002 L5.647,15.500002 L10.423834,9.76986714 Z" id="路径-6" fill="#333333"></path>
        </g>
    </g>
</svg>