<?xml version="1.0" encoding="UTF-8"?>
<svg width="32px" height="32px" viewBox="0 0 32 32" version="1.1" xmlns="http://www.w3.org/2000/svg" xmlns:xlink="http://www.w3.org/1999/xlink">
    <!-- Generator: Sketch 63.1 (92452) - https://sketch.com -->
    <title>_images / Icon / h_scanpen_light</title>
    <desc>Created with Sketch.</desc>
    <g id="_images-/-Icon-/-h_scanpen_light" stroke="none" stroke-width="1" fill="none" fill-rule="evenodd">
        <g id="fill" transform="translate(0.750000, 2.250000)">
            <path d="M27.625,0.708176102 C29.9535299,2.05255345 30.7916251,4.98705668 29.5595712,7.34816144 L29.455127,7.53830312 L25.080127,15.1160254 L25.0173133,15.2082265 L20.8556016,20.433118 L18.3391016,24.7918239 L11.4108984,20.7918239 L13.9243984,16.4383142 L16.3714314,10.2165242 L16.419873,10.1160254 L20.794873,2.53830312 C22.1755849,0.146840003 25.2335369,-0.672535773 27.625,0.708176102 Z M19.5400635,19.7116969 L15.2099365,17.2116969 L13.4599365,20.2427858 L17.7900635,22.7427858 L19.5400635,19.7116969 Z M26.875,2.00721421 C25.2567766,1.07293251 23.2025954,1.57775258 22.1944137,3.12458519 L22.0939111,3.28830312 L17.7475451,10.8144299 L15.7824013,15.8101588 L20.4667327,18.5146588 L23.8062229,14.3204921 L28.1560889,6.78830312 C29.058154,5.22588055 28.6186545,3.25704785 27.1950018,2.215682 L27.0387179,2.10771684 L26.875,2.00721421 Z" id="形状" fill="#333333" fill-rule="nonzero"></path>
            <path d="M22.8839746,6.91987298 L24.6160254,7.91987298 L23.6160254,9.65192379 C23.339883,10.1302164 22.7282926,10.2940916 22.25,10.0179492 C21.7717074,9.74180682 21.6078322,9.13021641 21.8839746,8.65192379 L22.8839746,6.91987298 Z M25.75,3.95577137 C26.2282926,4.23191374 26.3921678,4.84350415 26.1160254,5.32179677 L25.1160254,7.05384758 L23.3839746,6.05384758 L24.3839746,4.32179677 C24.660117,3.84350415 25.2717074,3.67962899 25.75,3.95577137 Z" id="形状结合" fill="#808080"></path>
            <path d="M17.25,25.75 C17.6642136,25.75 18,26.0857864 18,26.5 C18,26.8796958 17.7178461,27.193491 17.3517706,27.2431534 L17.25,27.25 L0.75,27.25 C0.335786438,27.25 0,26.9142136 0,26.5 C0,26.1203042 0.282153882,25.806509 0.648229443,25.7568466 L0.75,25.75 L17.25,25.75 Z M11.25,12.75 C11.6642136,12.75 12,13.0857864 12,13.5 C12,13.8796958 11.7178461,14.193491 11.3517706,14.2431534 L11.25,14.25 L6.25,14.25 C5.83578644,14.25 5.5,13.9142136 5.5,13.5 C5.5,13.1203042 5.78215388,12.806509 6.14822944,12.7568466 L6.25,12.75 L11.25,12.75 Z M13.25,8.75 C13.6642136,8.75 14,9.08578644 14,9.5 C14,9.87969577 13.7178461,10.193491 13.3517706,10.2431534 L13.25,10.25 L1.25,10.25 C0.835786438,10.25 0.5,9.91421356 0.5,9.5 C0.5,9.12030423 0.782153882,8.80650904 1.14822944,8.75684662 L1.25,8.75 L13.25,8.75 Z M17.25,1.75 C17.6642136,1.75 18,2.08578644 18,2.5 C18,2.87969577 17.7178461,3.19349096 17.3517706,3.24315338 L17.25,3.25 L8.25,3.25 C7.83578644,3.25 7.5,2.91421356 7.5,2.5 C7.5,2.12030423 7.78215388,1.80650904 8.14822944,1.75684662 L8.25,1.75 L17.25,1.75 Z" id="形状" fill="#808080" fill-rule="nonzero"></path>
        </g>
    </g>
</svg>