<?xml version="1.0" encoding="UTF-8"?>
<svg width="32px" height="32px" viewBox="0 0 32 32" version="1.1" xmlns="http://www.w3.org/2000/svg" xmlns:xlink="http://www.w3.org/1999/xlink">
    <!-- Generator: Sketch 63.1 (92452) - https://sketch.com -->
    <title>_images / Icon / h_voice_dark</title>
    <desc>Created with Sketch.</desc>
    <g id="_images-/-Icon-/-h_voice_dark" stroke="none" stroke-width="1" fill="none" fill-rule="evenodd">
        <path d="M1,13.25 C1.37969577,13.25 1.69349096,13.5321539 1.74315338,13.8982294 L1.75,14 L1.75,18 C1.75,18.4142136 1.41421356,18.75 1,18.75 C0.620304234,18.75 0.306509039,18.4678461 0.256846616,18.1017706 L0.25,18 L0.25,14 C0.25,13.5857864 0.585786438,13.25 1,13.25 Z" id="路径-7" fill="#CCCCCC" fill-rule="nonzero"></path>
        <path d="M7,7.25 C7.37969577,7.25 7.69349096,7.53215388 7.74315338,7.89822944 L7.75,8 L7.75,24 C7.75,24.4142136 7.41421356,24.75 7,24.75 C6.62030423,24.75 6.30650904,24.4678461 6.25684662,24.1017706 L6.25,24 L6.25,8 C6.25,7.58578644 6.58578644,7.25 7,7.25 Z" id="路径-7" fill="#808080" fill-rule="nonzero"></path>
        <path d="M13,3.25 C13.3796958,3.25 13.693491,3.53215388 13.7431534,3.89822944 L13.75,4 L13.75,28 C13.75,28.4142136 13.4142136,28.75 13,28.75 C12.6203042,28.75 12.306509,28.4678461 12.2568466,28.1017706 L12.25,28 L12.25,4 C12.25,3.58578644 12.5857864,3.25 13,3.25 Z" id="路径-7" fill="#CCCCCC" fill-rule="nonzero"></path>
        <path d="M19,9.25 C19.3796958,9.25 19.693491,9.53215388 19.7431534,9.89822944 L19.75,10 L19.75,22 C19.75,22.4142136 19.4142136,22.75 19,22.75 C18.6203042,22.75 18.306509,22.4678461 18.2568466,22.1017706 L18.25,22 L18.25,10 C18.25,9.58578644 18.5857864,9.25 19,9.25 Z" id="路径-7" fill="#979797" fill-rule="nonzero"></path>
        <path d="M25,13.25 C25.3796958,13.25 25.693491,13.5321539 25.7431534,13.8982294 L25.75,14 L25.75,18 C25.75,18.4142136 25.4142136,18.75 25,18.75 C24.6203042,18.75 24.306509,18.4678461 24.2568466,18.1017706 L24.25,18 L24.25,14 C24.25,13.5857864 24.5857864,13.25 25,13.25 Z" id="路径-7" fill="#CCCCCC" fill-rule="nonzero"></path>
        <path d="M31,12.25 C31.3796958,12.25 31.693491,12.5321539 31.7431534,12.8982294 L31.75,13 L31.75,19 C31.75,19.4142136 31.4142136,19.75 31,19.75 C30.6203042,19.75 30.306509,19.4678461 30.2568466,19.1017706 L30.25,19 L30.25,13 C30.25,12.5857864 30.5857864,12.25 31,12.25 Z" id="路径-7" fill="#979797" fill-rule="nonzero"></path>
    </g>
</svg>