<?xml version="1.0" encoding="UTF-8"?>
<svg width="120px" height="26px" viewBox="0 0 120 26" version="1.1" xmlns="http://www.w3.org/2000/svg" xmlns:xlink="http://www.w3.org/1999/xlink">
    <!-- Generator: Sketch 63.1 (92452) - https://sketch.com -->
    <title>切片</title>
    <desc>Created with Sketch.</desc>
    <g id="文档中心" stroke="none" stroke-width="1" fill="none" fill-rule="evenodd">
        <g id="文档中心-文章详情-Light" transform="translate(-24.000000, -19.000000)">
            <g id="Nav-Bar-/-#Combined">
                <g id="logo" transform="translate(24.000000, 19.000000)">
                    <g id="编组" transform="translate(0.000000, 2.000000)">
                        <path d="M86.4971657,5.63698286 C89.8986514,5.63698286 92.32848,8.26086857 92.32848,12.1485257 C92.32848,16.03584 89.8986514,18.6600686 86.4971657,18.6600686 C85.40928,18.6600686 84.42288,18.3892114 83.5815086,17.8968686 L83.5815086,17.8968686 L83.5815086,22.3533257 L80.6658514,22.3533257 L80.6658514,12.1485257 C80.6658514,8.26086857 83.09568,5.63698286 86.4971657,5.63698286 Z M55.0416686,0.631714286 C57.2818971,0.631714286 58.9121829,1.24885714 60.3175543,2.19171429 L60.3175543,2.19171429 L58.9320686,4.74462857 C57.3871543,4.0164 56.41104,3.6444 55.0420114,3.6444 C52.7013257,3.6444 52.4356114,5.03468571 52.4297829,5.63262857 C52.4181257,6.91594286 53.3434971,7.73228571 55.5237257,8.36245714 C58.0056686,9.0804 61.1349257,9.98485714 61.20384,13.4031429 C61.2045257,13.4453143 61.2072686,13.4861143 61.2072686,13.5289714 C61.2072686,16.6428 58.4431543,18.8058857 54.5013257,18.8058857 C51.7351543,18.8058857 49.5861257,17.1337714 48.1080686,15.6773143 L48.1080686,15.6773143 L50.1538971,13.6006286 C51.4903543,14.8880571 52.92624,15.6629143 54.3604114,15.7914857 C54.5383543,15.8069143 54.71424,15.8151429 54.8877257,15.8151429 C56.0023543,15.8151429 57.0048686,15.4911429 57.6381257,14.9120571 C58.0653257,14.5212 58.2912686,14.0432571 58.2912686,13.5293143 C58.2912686,11.9669143 57.1876114,11.5332 54.7138971,10.7878286 C52.5196114,10.1268 49.4808686,9.26211429 49.5144686,5.69777143 C49.53984,2.98714286 51.4464686,0.631714286 55.0416686,0.631714286 Z M70.94712,0.631714286 C75.8064343,0.631714286 78.7220914,3.88748571 78.7220914,9.7188 C78.7220914,15.5501143 75.8064343,18.8058857 70.94712,18.8058857 C66.0878057,18.8058857 63.1721486,15.5501143 63.1721486,9.7188 C63.1721486,3.88748571 66.0878057,0.631714286 70.94712,0.631714286 Z M100.10352,5.63684571 C103.536891,5.63684571 105.934834,8.31456 105.934834,12.1483886 C105.934834,12.5467886 105.905006,12.9373029 105.853577,13.3147886 L105.853577,13.3147886 L97.3154057,13.3147886 C97.6733486,14.8387886 98.7674057,15.7446171 100.346263,15.7446171 C101.478034,15.7446171 102.36672,15.2899886 102.915977,14.4307886 L102.915977,14.4307886 L105.372549,16.0014171 C104.292206,17.6910171 102.46032,18.6599314 100.346263,18.6599314 C96.76992,18.6599314 94.2722057,15.9822171 94.2722057,12.1483886 C94.2722057,8.31456 96.6701486,5.63684571 100.10352,5.63684571 Z M38.8750971,0.97176 L38.8750971,15.59016 L44.2078971,15.59016 C45.2710971,15.59016 46.1371543,16.44456 46.1515543,17.5081029 L46.16424,18.4657029 L35.95944,18.4657029 L35.95944,0.97176 L38.8750971,0.97176 Z M113.709806,5.63688 L113.93013,5.64133849 C116.779984,5.75688664 119.055291,8.10383143 119.055291,10.9823657 L119.055291,10.9823657 L119.055291,18.4655657 L116.139634,18.4655657 L116.139634,10.9823657 C116.139634,9.64248 115.049691,8.55253714 113.709806,8.55253714 C112.36992,8.55253714 111.279977,9.64248 111.279977,10.9823657 L111.279977,10.9823657 L111.279977,18.4655657 L108.36432,18.4655657 L108.36432,10.9823657 C108.36432,8.03002286 110.757806,5.63688 113.709806,5.63688 L113.709806,5.63688 Z M70.94712,3.54737143 C69.3747771,3.54737143 68.22792,3.98897143 67.4414057,4.8972 C66.5558057,5.9196 66.0878057,7.58691429 66.0878057,9.7188 C66.0878057,11.8506857 66.5558057,13.5176571 67.4414057,14.5400571 C68.22792,15.4486286 69.3747771,15.8902286 70.94712,15.8902286 C72.5194629,15.8902286 73.66632,15.4486286 74.4531771,14.5400571 C75.3384343,13.5176571 75.8064343,11.8506857 75.8064343,9.7188 C75.8064343,7.58691429 75.3384343,5.9196 74.4531771,4.8972 C73.66632,3.98897143 72.5194629,3.54737143 70.94712,3.54737143 Z M86.4971657,8.55264 C85.08768,8.55264 83.5815086,9.49721143 83.5815086,12.1485257 C83.5815086,14.79984 85.08768,15.7444114 86.4971657,15.7444114 C87.9066514,15.7444114 89.4128229,14.79984 89.4128229,12.1485257 C89.4128229,9.49721143 87.9066514,8.55264 86.4971657,8.55264 Z M100.10352,8.55250286 C98.4365486,8.55250286 97.6044343,9.67021714 97.3133486,10.9823314 L97.3133486,10.9823314 L102.893691,10.9823314 C102.602606,9.67021714 101.770491,8.55250286 100.10352,8.55250286 Z" id="形状结合" fill="#1A1A1A"></path>
                        <path d="M21.3813257,19.4375657 L6.85714286e-05,19.4375657 L6.85714286e-05,-3.42857143e-05 L18.9281829,-3.42857143e-05 C19.8861257,-3.42857143e-05 21.1282971,0.0393942857 21.3826971,0.981908571 C21.65184,1.97825143 21.3813257,2.90739429 21.3813257,2.90739429 L21.3813257,19.4375657 Z" id="Fill-13" fill="#1D99FF"></path>
                        <polygon id="Fill-15" fill="#0568FF" points="4.85931429 7.77514286 16.5219429 7.77514286 16.5219429 5.83148571 4.85931429 5.83148571"></polygon>
                        <path d="M24.9119314,21.6583543 C23.1187886,22.4853257 17.4019886,23.6705829 17.4019886,23.6705829 L12.3709029,4.89538286 C12.3709029,4.89538286 17.9032457,3.72109714 19.8811886,2.88315429 C21.35376,2.25915429 21.5131886,1.46406857 21.3811886,0.971725714 L26.2864457,19.2778971 C26.56416,20.3146971 26.1726171,21.0768686 24.9119314,21.6583543" id="Fill-17" fill="#00DBCB"></path>
                        <polygon id="Fill-18" fill="#0568FF" points="4.85931429 13.6064571 11.6626286 13.6064571 11.6626286 11.6628 4.85931429 11.6628"></polygon>
                    </g>
                </g>
            </g>
        </g>
    </g>
</svg>