<?xml version="1.0" encoding="UTF-8"?>
<svg width="120px" height="26px" viewBox="0 0 120 26" version="1.1" xmlns="http://www.w3.org/2000/svg" xmlns:xlink="http://www.w3.org/1999/xlink">
    <!-- Generator: Sketch 63.1 (92452) - https://sketch.com -->
    <title>_images / logo_dark</title>
    <desc>Created with Sketch.</desc>
    <defs>
        <polygon id="path-1" points="6.76056338e-05 0.32484507 21.1991171 0.32484507 21.1991171 19.4884732 6.76056338e-05 19.4884732"></polygon>
    </defs>
    <g id="_images-/-logo_dark" stroke="none" stroke-width="1" fill="none" fill-rule="evenodd">
        <g id="编组-3" transform="translate(0.000000, 2.013352)">
            <g id="编组-2">
                <g id="编组">
                    <mask id="mask-2" fill="white">
                        <use xlink:href="#path-1"></use>
                    </mask>
                    <g id="Clip-2"></g>
                    <path d="M21.0801803,19.4884732 L6.76056338e-05,19.4884732 L6.76056338e-05,0.324642254 L18.6615887,0.324642254 C19.6060394,0.324642254 20.8307155,0.363515493 21.0815324,1.29275493 C21.3468845,2.27506479 21.0801803,3.19112113 21.0801803,3.19112113 L21.0801803,19.4884732 Z" id="Fill-1" fill="#1D99FF" mask="url(#mask-2)"></path>
                </g>
                <polygon id="Fill-3" fill="#0568FF" points="4.79087324 7.99030986 16.2892394 7.99030986 16.2892394 6.07402817 4.79087324 6.07402817"></polygon>
                <path d="M24.5610592,21.6779831 C22.7931718,22.493307 17.1568901,23.6618704 17.1568901,23.6618704 L12.1966648,5.15110986 C12.1966648,5.15110986 17.6510873,3.99336338 19.6011718,3.16722254 C21.0530028,2.55201127 21.2101859,1.76812394 21.0800451,1.28271549 L25.9162141,19.3310535 C26.1900169,20.3532507 25.8039887,21.1046873 24.5610592,21.6779831" id="Fill-5" fill="#00DBCB"></path>
                <polygon id="Fill-6" fill="#0568FF" points="4.79087324 13.739493 11.4983662 13.739493 11.4983662 11.8232113 4.79087324 11.8232113"></polygon>
            </g>
            <path d="M115.845228,14.9028169 C115.845228,11.9836056 113.098073,11.4616901 111.258524,11.0083944 C110.354975,10.7856338 109.227651,10.4212394 109.227651,9.67115493 C109.227651,8.77267606 109.954411,8.63509859 110.844777,8.70878873 C111.865623,8.79329577 112.925341,9.11307042 113.808608,9.53932394 L115.007256,6.9263662 C113.590918,6.27667606 112.604214,5.88219718 110.844777,5.88219718 C107.89582,5.88219718 106.353059,7.88467606 106.353059,9.8628169 C106.353059,12.2607887 108.846017,12.5589296 110.495594,13.0132394 C112.461904,13.5544225 113.011876,14.040169 112.970637,14.8071549 C112.91689,15.804338 111.851425,16.2812958 110.042637,15.8472676 C108.801059,15.5494648 108.153059,15.1123944 107.182918,14.399831 L105.343707,16.6088451 C107.051087,18.0305915 108.713848,18.7218592 110.425961,18.7218592 C114.421792,18.7218592 115.845228,16.7491268 115.845228,14.9028169 L115.845228,14.9028169 Z M100.843538,13.9309859 C100.365904,15.3155493 99.2635944,15.8472676 98.2143549,15.8472676 C96.8247211,15.8472676 95.3397634,14.916 95.3397634,12.3020282 C95.3397634,9.68805634 96.8247211,8.75678873 98.2143549,8.75678873 C99.2635944,8.75678873 100.365904,9.28850704 100.843538,10.6730704 L103.801285,10.6730704 C103.218862,7.75690141 101.065961,5.88219718 98.2143549,5.88219718 C94.8607775,5.88219718 92.4655099,8.46946479 92.4655099,12.3020282 C92.4655099,16.1349296 94.8607775,18.7218592 98.2143549,18.7218592 C101.065961,18.7218592 103.218862,16.847493 103.801285,13.9309859 L100.843538,13.9309859 Z M84.799707,5.88219718 C88.1536225,5.88219718 90.5488901,8.46946479 90.5488901,12.3020282 C90.5488901,16.1349296 88.1536225,18.7218592 84.799707,18.7218592 C81.4461296,18.7218592 79.0505239,16.1349296 79.0505239,12.3020282 C79.0505239,8.46946479 81.4461296,5.88219718 84.799707,5.88219718 L84.799707,5.88219718 Z M84.799707,8.75678873 C83.4100732,8.75678873 81.9251155,9.68805634 81.9251155,12.3020282 C81.9251155,14.916 83.4100732,15.8472676 84.799707,15.8472676 C86.1893408,15.8472676 87.6742986,14.916 87.6742986,12.3020282 C87.6742986,9.68805634 86.1893408,8.75678873 84.799707,8.75678873 L84.799707,8.75678873 L84.799707,8.75678873 Z M74.2596507,9.90642254 C74.2596507,6.73639437 71.6808338,4.15757746 68.5104676,4.15757746 L65.6358761,4.15757746 L65.6358761,15.6559437 L68.5104676,15.6559437 C71.6808338,15.6559437 74.2596507,13.0767887 74.2596507,9.90642254 L74.2596507,9.90642254 Z M77.1342423,9.90642254 C77.1342423,14.6692394 73.2732845,18.5305352 68.5104676,18.5305352 L62.7616225,18.5305352 L62.7616225,1.28298592 L68.5104676,1.28298592 C73.2732845,1.28298592 77.1342423,5.14394366 77.1342423,9.90642254 L77.1342423,9.90642254 Z M60.3416789,13.5392113 C60.2737352,10.1690704 57.1888901,9.27701408 54.7415662,8.56952113 C52.5920451,7.94822535 51.6800451,7.14338028 51.6912,5.87814085 C51.6969465,5.28861972 51.9592563,3.91791549 54.2666366,3.91791549 C55.6167211,3.91791549 56.5790873,4.28467606 58.1019042,5.00230986 L59.4682141,2.48535211 C58.0826366,1.55577465 56.4749746,0.947661972 54.2666366,0.947661972 C50.7217352,0.947661972 48.8419606,3.26991549 48.8172845,5.9423662 C48.7838197,9.45616901 51.7801014,10.3086761 53.9434817,10.9607324 C56.3820169,11.6952676 57.4704676,12.1232113 57.4704676,13.6632676 C57.4704676,14.1703099 57.247707,14.6415211 56.8261859,15.0268732 C56.2021859,15.5974648 55.2134535,15.9169014 54.1145239,15.9169014 C53.9438197,15.9169014 53.7700732,15.9091268 53.5949746,15.8935775 C52.1810028,15.7668169 50.7650028,15.0032113 49.447707,13.7339155 L47.4303549,15.7813521 C48.8879324,17.2172958 51.006693,18.8655211 53.7335662,18.8655211 C57.6198761,18.8655211 60.3450592,16.7332394 60.3450592,13.6632676 C60.3450592,13.6210141 60.342693,13.5807887 60.3416789,13.5392113 L60.3416789,13.5392113 Z M45.5140732,18.5301972 L35.4530028,18.5301972 L35.4530028,1.28298592 L38.3275944,1.28298592 L38.3275944,15.6951549 L43.5852845,15.6951549 C44.6335099,15.6951549 45.487369,16.5378592 45.5015662,17.5860845 L45.5140732,18.5301972 Z" id="Fill-7" fill="#FFFFFF"></path>
        </g>
    </g>
</svg>