<?xml version="1.0" encoding="UTF-8"?>
<svg width="32px" height="16px" viewBox="0 0 32 16" version="1.1" xmlns="http://www.w3.org/2000/svg" xmlns:xlink="http://www.w3.org/1999/xlink">
    <!-- Generator: Sketch 63.1 (92452) - https://sketch.com -->
    <title>切片</title>
    <desc>Created with Sketch.</desc>
    <g id="文档中心" stroke="none" stroke-width="1" fill="none" fill-rule="evenodd">
        <g id="文档中心-首页-dark" transform="translate(-340.000000, -1504.000000)" fill="#999999">
            <g id="编组-2" transform="translate(120.000000, 1412.000000)">
                <g id="#Icon-/-Font-/-r_arrow_right" transform="translate(220.000000, 92.000000)">
                    <path d="M15.5914004,-3.86019693 C15.8311339,-4.04660102 16.1688661,-4.04660102 16.4085996,-3.86019693 L16.4714045,-3.80473785 L22.4714045,2.19526215 L22.5268636,2.25806704 C22.7132677,2.49780055 22.7132677,2.83553278 22.5268636,3.0752663 L22.4714045,3.13807119 L22.4085996,3.19353026 C22.1688661,3.37993436 21.8311339,3.37993436 21.5914004,3.19353026 L21.5285955,3.13807119 L16.6666667,-1.724 L16.6666667,19.3333333 C16.6666667,19.7015232 16.3681898,20 16,20 C15.6318102,20 15.3333333,19.7015232 15.3333333,19.3333333 L15.3333333,-1.724 L10.4714045,3.13807119 L10.4085996,3.19353026 C10.1470722,3.39688019 9.76891812,3.37839383 9.52859548,3.13807119 C9.28827284,2.89774855 9.26978648,2.51959451 9.47313641,2.25806704 L9.52859548,2.19526215 L15.5285955,-3.80473785 L15.5914004,-3.86019693 Z" id="路径" transform="translate(16.000000, 8.000000) rotate(90.000000) translate(-16.000000, -8.000000) "></path>
                </g>
            </g>
        </g>
    </g>
</svg>