<?xml version="1.0" encoding="UTF-8"?>
<svg width="24px" height="24px" viewBox="0 0 24 24" version="1.1" xmlns="http://www.w3.org/2000/svg" xmlns:xlink="http://www.w3.org/1999/xlink">
    <!-- Generator: Sketch 63.1 (92452) - https://sketch.com -->
    <title>切片</title>
    <desc>Created with Sketch.</desc>
    <g id="文档中心" stroke="none" stroke-width="1" fill="none" fill-rule="evenodd">
        <g id="文档中心-首页-Light" transform="translate(-344.000000, -310.000000)" fill="#808080">
            <g id="header" transform="translate(320.000000, 164.000000)">
                <g id="编组-7" transform="translate(0.000000, 130.000000)">
                    <g id="Icon" transform="translate(24.000000, 16.000000)">
                        <path d="M10.5,2 C15.1944204,2 19,5.80557963 19,10.5 C19,12.5772398 18.2548733,14.4804458 17.0173236,15.9569146 L21.5303301,20.4696699 C21.8232233,20.7625631 21.8232233,21.2374369 21.5303301,21.5303301 C21.2640635,21.7965966 20.8473998,21.8208027 20.5537883,21.6029482 L20.4696699,21.5303301 L15.9569146,17.0173236 C14.4804458,18.2548733 12.5772398,19 10.5,19 C5.80557963,19 2,15.1944204 2,10.5 C2,5.80557963 5.80557963,2 10.5,2 Z M10.5,3.5 C6.63400675,3.5 3.5,6.63400675 3.5,10.5 C3.5,14.3659932 6.63400675,17.5 10.5,17.5 C14.3659932,17.5 17.5,14.3659932 17.5,10.5 C17.5,6.63400675 14.3659932,3.5 10.5,3.5 Z" id="Color"></path>
                    </g>
                </g>
            </g>
        </g>
    </g>
</svg>