<?xml version="1.0" encoding="UTF-8"?>
<svg width="24px" height="24px" viewBox="0 0 24 24" version="1.1" xmlns="http://www.w3.org/2000/svg" xmlns:xlink="http://www.w3.org/1999/xlink">
    <!-- Generator: Sketch 63.1 (92452) - https://sketch.com -->
    <title>r_success</title>
    <desc>Created with Sketch.</desc>
    <g id="r_success" stroke="none" stroke-width="1" fill="none" fill-rule="evenodd">
        <g id="#IconFont-/-Regular-/-r-tick-oval" fill="#00DBCB">
            <path d="M12,1.5 C17.7998031,1.5 22.5,6.20019685 22.5,12 C22.5,17.7998031 17.7998031,22.5 12,22.5 C6.20019685,22.5 1.5,17.7998031 1.5,12 C1.5,6.20019685 6.20019685,1.5 12,1.5 Z M16.4100077,7.5016432 L10.5857786,14.0390432 L7.60520632,10.5516619 C7.20152917,10.0793444 6.49139528,10.0237005 6.01907787,10.4273777 C5.54676047,10.8310548 5.49111654,11.5411887 5.89479368,12.0135061 L9.7129755,16.4809221 C10.1559915,16.9992675 10.9545909,17.0074809 11.4081741,16.4983568 L18.0899923,8.9983568 C18.5032984,8.53444185 18.4622717,7.82331372 17.9983568,7.41000768 C17.5344418,6.99670163 16.8233137,7.03772825 16.4100077,7.5016432 Z" id="↳-Color"></path>
        </g>
    </g>
</svg>