<?xml version="1.0" encoding="UTF-8"?>
<svg width="24px" height="24px" viewBox="0 0 24 24" version="1.1" xmlns="http://www.w3.org/2000/svg" xmlns:xlink="http://www.w3.org/1999/xlink">
    <!-- Generator: Sketch 63.1 (92452) - https://sketch.com -->
    <title>#Icon / Font / r_thumb_down_solid</title>
    <desc>Created with Sketch.</desc>
    <g id="#Icon-/-Font-/-r_thumb_down_solid" stroke="none" stroke-width="1" fill="none" fill-rule="evenodd">
        <path d="M17.7431249,2.5 C18.4334809,2.5 18.9931249,3.05964406 18.9931249,3.75 L18.9931249,3.75 L18.9931249,13.750262 C18.9929487,14.4404886 18.4333828,15 17.7431249,15 L17.7431249,15 L15.9738258,15 C14.2934479,15 12.914612,16.2414207 11.7320603,18.4758299 C11.3252534,19.2444839 11.0224785,19.9512122 10.5935184,21.0597294 L10.5935184,21.0597294 L10.3062297,21.7922708 L10.166139,22.1063436 C10.1255132,22.1893072 10.0862021,22.2602628 10.044606,22.3237936 C9.8752801,22.5824092 9.6895497,22.75 9.31950806,22.75 C7.03013752,22.75 6.13033259,20.8787004 7.02719475,18.226951 C7.13371119,17.9120141 7.25299373,17.5962172 7.39551527,17.2451131 C7.45863446,17.089618 7.72343129,16.4624334 7.87144502,16.1035139 L7.87144502,16.1035139 L8.01534668,15.7388831 C8.12554643,15.4396691 8.18025256,15.2316465 8.18806362,15.0939841 C8.19176498,15.0287513 8.19085751,15.0087571 7.95133243,15.002657 L7.95133243,15.002657 L4.3453715,15 C2.2020153,15 1.35953081,12.975576 2.12412358,10.2943269 C2.60672859,8.60194329 3.22657109,6.89106357 3.86237164,5.52833398 C4.84601848,3.42005542 6.44033236,2.5 9.49312493,2.5 L9.49312493,2.5 Z M21.25,2.75 C21.6296958,2.75 21.943491,3.03215388 21.9931534,3.39822944 L22,3.5 L22,13.5 C22,13.9142136 21.6642136,14.25 21.25,14.25 C20.8703042,14.25 20.556509,13.9678461 20.5068466,13.6017706 L20.5,13.5 L20.5,3.5 C20.5,3.08578644 20.8357864,2.75 21.25,2.75 Z" id="形状结合" fill="#1D99FF"></path>
    </g>
</svg>