<?xml version="1.0" encoding="UTF-8"?>
<svg width="24px" height="24px" viewBox="0 0 24 24" version="1.1" xmlns="http://www.w3.org/2000/svg" xmlns:xlink="http://www.w3.org/1999/xlink">
    <!-- Generator: Sketch 63.1 (92452) - https://sketch.com -->
    <title>#Icon / Font / r_thumb_up_light</title>
    <desc>Created with Sketch.</desc>
    <g id="#Icon-/-Font-/-r_thumb_up_light" stroke="none" stroke-width="1" fill="none" fill-rule="evenodd">
        <path d="M14.6736169,1.25 C16.9629874,1.25 17.8627923,3.12129963 16.9659302,5.77304904 C16.8594137,6.08798587 16.7401312,6.40378283 16.5976097,6.7548869 C16.5344905,6.91038203 16.2696936,7.5375666 16.1216799,7.89648609 L16.1216799,7.89648609 L15.9777783,8.26111692 C15.8675785,8.56033089 15.8128724,8.7683535 15.8050613,8.9060159 C15.8013599,8.97124875 15.8022674,8.99124289 16.0417925,8.99734298 L16.0417925,8.99734298 L19.6477534,9 C21.7911096,9 22.6335941,11.024424 21.8690013,13.7056731 C21.3863963,15.3980567 20.7665538,17.1089364 20.1307533,18.471666 C19.1471065,20.5799446 17.5527926,21.5 14.5,21.5 L14.5,21.5 L6.25,21.5 C5.55964406,21.5 5,20.9403559 5,20.25 L5,20.25 L5,10.249738 C5.00017623,9.55951143 5.55974215,9 6.25,9 L6.25,9 L8.01929913,9 C9.69967705,9 11.0785129,7.75857935 12.2610646,5.52417014 C12.6678715,4.75551614 12.9706464,4.04878783 13.3996066,2.94027056 L13.3996066,2.94027056 L13.6658979,2.2589587 L13.826986,1.89365636 C13.8676117,1.8106928 13.9069228,1.73973717 13.9485189,1.67620644 C14.1178448,1.41759082 14.3035752,1.25 14.6736169,1.25 Z M2.75,9.75 C3.12969577,9.75 3.44349096,10.0321539 3.49315338,10.3982294 L3.5,10.5 L3.5,20.5 C3.5,20.9142136 3.16421356,21.25 2.75,21.25 C2.37030423,21.25 2.05650904,20.9678461 2.00684662,20.6017706 L2,20.5 L2,10.5 C2,10.0857864 2.33578644,9.75 2.75,9.75 Z M15.069,2.79 C15.0628569,2.80505534 15.0564315,2.82092996 15.0495893,2.8379617 L15.0495893,2.8379617 L14.6533141,3.85366526 C14.2768427,4.80905563 13.979098,5.48466089 13.5868374,6.22582986 C12.1717716,8.89957025 10.3941872,10.5 8.01929913,10.5 L8.01929913,10.5 L6.5,10.5 L6.5,19.999 L14.5,20 C16.9045583,20 17.9687494,19.4354292 18.6923732,18.0004877 L18.6923732,18.0004877 L18.7714251,17.8374524 C19.3713966,16.5515163 19.964542,14.9143254 20.4265055,13.2943269 C20.9556556,11.4387205 20.5649976,10.5 19.6477534,10.5 L19.6477534,10.5 L16.4587356,10.5 C15.047415,10.5 14.2436794,9.94529026 14.3074701,8.82104148 C14.3278504,8.46185853 14.4363886,8.08037376 14.6402934,7.55819957 L14.6402934,7.55819957 L14.6736216,7.47468926 L15.3026815,5.9529734 C15.3936078,5.72110992 15.4729883,5.50538561 15.545,5.29246874 C16.0589531,3.77286519 15.870404,2.99726938 15.11714,2.80081529 L15.11714,2.80081529 Z" id="形状结合" fill="#808080"></path>
    </g>
</svg>