<?xml version="1.0" encoding="UTF-8"?>
<svg width="24px" height="24px" viewBox="0 0 24 24" version="1.1" xmlns="http://www.w3.org/2000/svg" xmlns:xlink="http://www.w3.org/1999/xlink">
    <!-- Generator: Sketch 63.1 (92452) - https://sketch.com -->
    <title>#Icon / Font / r_thumb_down_dark</title>
    <desc>Created with Sketch.</desc>
    <g id="#Icon-/-Font-/-r_thumb_down_dark" stroke="none" stroke-width="1" fill="none" fill-rule="evenodd">
        <path d="M17.7431249,2.5 C18.4334809,2.5 18.9931249,3.05964406 18.9931249,3.75 L18.9931249,3.75 L18.9931249,13.750262 C18.9929487,14.4404886 18.4333828,15 17.7431249,15 L17.7431249,15 L15.9738258,15 C14.2934479,15 12.914612,16.2414207 11.7320603,18.4758299 C11.3252534,19.2444839 11.0224785,19.9512122 10.5935184,21.0597294 L10.5935184,21.0597294 L10.3062297,21.7922708 L10.166139,22.1063436 C10.1255132,22.1893072 10.0862021,22.2602628 10.044606,22.3237936 C9.8752801,22.5824092 9.6895497,22.75 9.31950806,22.75 C7.03013752,22.75 6.13033259,20.8787004 7.02719475,18.226951 C7.13371119,17.9120141 7.25299373,17.5962172 7.39551527,17.2451131 C7.45863446,17.089618 7.72343129,16.4624334 7.87144502,16.1035139 L7.87144502,16.1035139 L8.01534668,15.7388831 C8.12554643,15.4396691 8.18025256,15.2316465 8.18806362,15.0939841 C8.19176498,15.0287513 8.19085751,15.0087571 7.95133243,15.002657 L7.95133243,15.002657 L4.3453715,15 C2.2020153,15 1.35953081,12.975576 2.12412358,10.2943269 C2.60672859,8.60194329 3.22657109,6.89106357 3.86237164,5.52833398 C4.84601848,3.42005542 6.44033236,2.5 9.49312493,2.5 L9.49312493,2.5 Z M17.4931543,4.001 L9.49312493,4 C7.08856659,4 6.02437549,4.56457083 5.30075175,5.99951231 L5.30075175,5.99951231 L5.22169983,6.16254756 C4.62172835,7.44848369 4.02858289,9.08567462 3.56661942,10.7056731 C3.03746933,12.5612795 3.42812735,13.5 4.3453715,13.5 L4.3453715,13.5 L7.53438934,13.5 C8.94570994,13.5 9.7494455,14.0547097 9.68565481,15.1789585 C9.6652745,15.5381415 9.55673637,15.9196262 9.35283149,16.4418004 L9.35283149,16.4418004 L9.31950329,16.5253107 C9.21311655,16.7882475 8.97675143,17.349636 8.85314393,17.6457507 L8.85314393,17.6457507 L8.69044343,18.0470266 C8.5995171,18.2788901 8.52013667,18.4946144 8.44812493,18.7075313 C7.93417179,20.2271348 8.12272098,21.0027306 8.87598492,21.1991847 L8.87598492,21.1991847 L8.92415428,21.21 C8.93029371,21.1949447 8.93671589,21.17907 8.94355525,21.1620383 L8.94355525,21.1620383 L9.33981082,20.1463347 C9.71628226,19.1909444 10.0140269,18.5153391 10.4062875,17.7741701 C11.8213534,15.1004297 13.5989377,13.5 15.9738258,13.5 L15.9738258,13.5 L17.4931543,13.5 L17.4931543,4.001 Z M21.25,2.75 C21.6296958,2.75 21.943491,3.03215388 21.9931534,3.39822944 L22,3.5 L22,13.5 C22,13.9142136 21.6642136,14.25 21.25,14.25 C20.8703042,14.25 20.556509,13.9678461 20.5068466,13.6017706 L20.5,13.5 L20.5,3.5 C20.5,3.08578644 20.8357864,2.75 21.25,2.75 Z" id="形状结合" fill="#999999"></path>
    </g>
</svg>