<?xml version="1.0" encoding="UTF-8"?>
<svg width="16px" height="16px" viewBox="0 0 16 16" version="1.1" xmlns="http://www.w3.org/2000/svg" xmlns:xlink="http://www.w3.org/1999/xlink">
    <!-- Generator: Sketch 63.1 (92452) - https://sketch.com -->
    <title>切片</title>
    <desc>Created with Sketch.</desc>
    <g id="文档中心" stroke="none" stroke-width="1" fill="none" fill-rule="evenodd">
        <g id="文档中心-文章详情-Light" transform="translate(-1048.000000, -24.000000)" fill="#808080">
            <g id="Nav-Bar-/-#Combined">
                <g id="Theme" transform="translate(1008.000000, 16.000000)">
                    <g id="#Icon-/-Font-/-r_light_solid" transform="translate(40.000000, 8.000000)">
                        <path d="M5.88068246,0.547735161 C5.52789013,1.40696016 5.33333333,2.34742616 5.33333333,3.33333333 C5.33333333,7.3834215 8.6165785,10.6666667 12.6666667,10.6666667 C13.6526575,10.6666667 14.5931995,10.4720768 15.4519843,10.1192054 C14.3559441,12.7874387 11.730764,14.6666667 8.66666667,14.6666667 C4.6165785,14.6666667 1.33333333,11.3834215 1.33333333,7.33333333 C1.33333333,4.26949113 3.2122484,1.64449305 5.88068246,0.547735161 Z M4.35436917,2.73722384 L4.358,2.69 L4.33154634,2.71470103 C3.08625442,3.88446877 2.33333333,5.53911168 2.33333333,7.33333333 C2.33333333,10.8311367 5.16886325,13.6666667 8.66666667,13.6666667 C10.3892357,13.6666667 11.9831585,12.9726758 13.1427007,11.8154316 L13.31,11.6413333 L13.2628883,11.6456224 C13.1640743,11.6526199 13.0649587,11.657881 12.9655767,11.6613927 L12.6666667,11.6666667 C8.06429375,11.6666667 4.33333333,7.93570625 4.33333333,3.33333333 C4.33333333,3.1336139 4.34037967,2.93481836 4.35436917,2.73722384 Z" id="路径"></path>
                    </g>
                </g>
            </g>
        </g>
    </g>
</svg>