<?xml version="1.0" encoding="UTF-8"?>
<svg width="16px" height="16px" viewBox="0 0 16 16" version="1.1" xmlns="http://www.w3.org/2000/svg" xmlns:xlink="http://www.w3.org/1999/xlink">
    <!-- Generator: Sketch 63.1 (92452) - https://sketch.com -->
    <title>切片</title>
    <desc>Created with Sketch.</desc>
    <g id="文档中心" stroke="none" stroke-width="1" fill="none" fill-rule="evenodd">
        <g id="文档中心-文章详情-Dark" transform="translate(-1016.000000, -24.000000)" fill="#999999">
            <g id="Nav-Bar-/-#Combined">
                <g id="Theme" transform="translate(1008.000000, 16.000000)">
                    <g id="#Icon-/-Font-/-r_light_solid" transform="translate(8.000000, 8.000000)">
                        <path d="M8,14 C8.27614237,14 8.5,14.2238576 8.5,14.5 L8.5,15.1666667 C8.5,15.442809 8.27614237,15.6666667 8,15.6666667 C7.72385763,15.6666667 7.5,15.442809 7.5,15.1666667 L7.5,14.5 C7.5,14.2238576 7.72385763,14 8,14 Z M8,3 C10.7614237,3 13,5.23857625 13,8 C13,10.7614237 10.7614237,13 8,13 C5.23857625,13 3,10.7614237 3,8 C3,5.23857625 5.23857625,3 8,3 Z M13.8791651,10.8169873 L14.4565154,11.1503206 C14.6956617,11.2883918 14.7775993,11.594187 14.6395281,11.8333333 C14.5014569,12.0724796 14.1956617,12.1544172 13.9565154,12.016346 L13.3791651,11.6830127 C13.1400188,11.5449415 13.0580812,11.2391463 13.1961524,11 C13.3342236,10.7608537 13.6400188,10.6789161 13.8791651,10.8169873 Z M2.80384758,11 C2.94191876,11.2391463 2.85998119,11.5449415 2.62083488,11.6830127 L2.04348461,12.016346 C1.80433829,12.1544172 1.49854309,12.0724796 1.3604719,11.8333333 C1.22240072,11.594187 1.30433829,11.2883918 1.54348461,11.1503206 L2.12083488,10.8169873 C2.35998119,10.6789161 2.66577639,10.7608537 2.80384758,11 Z M8,4 C5.790861,4 4,5.790861 4,8 C4,10.209139 5.790861,12 8,12 C10.209139,12 12,10.209139 12,8 C12,5.790861 10.209139,4 8,4 Z M2.04348461,3.98365396 L2.62083488,4.3169873 C2.85998119,4.45505849 2.94191876,4.76085369 2.80384758,5 C2.66577639,5.23914631 2.35998119,5.32108389 2.12083488,5.1830127 L1.54348461,4.84967937 C1.30433829,4.71160818 1.22240072,4.40581298 1.3604719,4.16666667 C1.49854309,3.92752035 1.80433829,3.84558278 2.04348461,3.98365396 Z M14.6395281,4.16666667 C14.7775993,4.40581298 14.6956617,4.71160818 14.4565154,4.84967937 L13.8791651,5.1830127 C13.6400188,5.32108389 13.3342236,5.23914631 13.1961524,5 C13.0580812,4.76085369 13.1400188,4.45505849 13.3791651,4.3169873 L13.9565154,3.98365396 C14.1956617,3.84558278 14.5014569,3.92752035 14.6395281,4.16666667 Z M8,0.333333333 C8.27614237,0.333333333 8.5,0.557190958 8.5,0.833333333 L8.5,1.5 C8.5,1.77614237 8.27614237,2 8,2 C7.72385763,2 7.5,1.77614237 7.5,1.5 L7.5,0.833333333 C7.5,0.557190958 7.72385763,0.333333333 8,0.333333333 Z" id="color"></path>
                    </g>
                </g>
            </g>
        </g>
    </g>
</svg>